<svg xmlns="http://www.w3.org/2000/svg" viewBox="0 0 100 100" width="100" height="100">
  <g stroke="#F6F8FB" stroke-width="0.8" vector-effect="non-scaling-stroke"><path d="M 0.00 0.00 L 2.86 2.60 L 5.71 4.69 L 8.57 5.85 L 11.43 5.85 L 14.29 4.69 L 17.14 2.60 L 20.00 0.00 L 22.86 -2.60 L 25.71 -4.69 L 28.57 -5.85 L 31.43 -5.85 L 34.29 -4.69 L 37.14 -2.60 L 40.00 -0.00 L 42.86 2.60 L 45.71 4.69 L 48.57 5.85 L 51.43 5.85 L 54.29 4.69 L 57.14 2.60 L 60.00 0.00 L 62.86 -2.60 L 65.71 -4.69 L 68.57 -5.85 L 71.43 -5.85 L 74.29 -4.69 L 77.14 -2.60 L 80.00 -0.00 L 82.86 2.60 L 85.71 4.69 L 88.57 5.85 L 91.43 5.85 L 94.29 4.69 L 97.14 2.60 L 100.00 0.00" fill="none"/><path d="M 0.00 6.25 L 2.86 10.33 L 5.71 11.84 L 8.57 12.23 L 11.43 11.44 L 14.29 9.63 L 17.14 7.14 L 20.00 4.48 L 22.86 2.17 L 25.71 0.66 L 28.57 0.27 L 31.43 1.06 L 34.29 2.87 L 37.14 5.36 L 40.00 8.02 L 42.86 10.33 L 45.71 11.84 L 48.57 12.23 L 51.43 11.44 L 54.29 9.63 L 57.14 7.14 L 60.00 4.48 L 62.86 2.17 L 65.71 0.66 L 68.57 0.27 L 71.43 1.06 L 74.29 2.87 L 77.14 5.36 L 80.00 8.02 L 82.86 10.33 L 85.71 11.84 L 88.57 12.23 L 91.43 11.44 L 94.29 9.63 L 97.14 7.14 L 100.00 4.48" fill="none"/><path d="M 0.00 12.50 L 2.86 17.70 L 5.71 18.48 L 8.57 18.08 L 11.43 16.57 L 14.29 14.26 L 17.14 11.60 L 20.00 9.11 L 22.86 7.30 L 25.71 6.52 L 28.57 6.92 L 31.43 8.43 L 34.29 10.74 L 37.14 13.40 L 40.00 15.89 L 42.86 17.70 L 45.71 18.48 L 48.57 18.08 L 51.43 16.57 L 54.29 14.26 L 57.14 11.60 L 60.00 9.11 L 62.86 7.30 L 65.71 6.52 L 68.57 6.92 L 71.43 8.43 L 74.29 10.74 L 77.14 13.40 L 80.00 15.89 L 82.86 17.70 L 85.71 18.48 L 88.57 18.08 L 91.43 16.57 L 94.29 14.26 L 97.14 11.60 L 100.00 9.11" fill="none"/><path d="M 0.00 18.75 L 2.86 24.60 L 5.71 24.60 L 8.57 23.43 L 11.43 21.34 L 14.29 18.74 L 17.14 16.13 L 20.00 14.05 L 22.86 12.90 L 25.71 12.90 L 28.57 14.07 L 31.43 16.16 L 34.29 18.76 L 37.14 21.37 L 40.00 23.45 L 42.86 24.60 L 45.71 24.60 L 48.57 23.43 L 51.43 21.34 L 54.29 18.74 L 57.14 16.13 L 60.00 14.05 L 62.86 12.90 L 65.71 12.90 L 68.57 14.07 L 71.43 16.16 L 74.29 18.76 L 77.14 21.37 L 80.00 23.45 L 82.86 24.60 L 85.71 24.60 L 88.57 23.43 L 91.43 21.34 L 94.29 18.74 L 97.14 16.13 L 100.00 14.05" fill="none"/><path d="M 0.00 25.00 L 2.86 30.98 L 5.71 30.19 L 8.57 28.36 L 11.43 25.88 L 14.29 23.21 L 17.14 20.90 L 20.00 19.41 L 22.86 19.02 L 25.71 19.81 L 28.57 21.64 L 31.43 24.12 L 34.29 26.79 L 37.14 29.10 L 40.00 30.59 L 42.86 30.98 L 45.71 30.19 L 48.57 28.36 L 51.43 25.88 L 54.29 23.21 L 57.14 20.90 L 60.00 19.41 L 62.86 19.02 L 65.71 19.81 L 68.57 21.64 L 71.43 24.12 L 74.29 26.79 L 77.14 29.10 L 80.00 30.59 L 82.86 30.98 L 85.71 30.19 L 88.57 28.36 L 91.43 25.88 L 94.29 23.21 L 97.14 20.90 L 100.00 19.41" fill="none"/><path d="M 0.00 31.25 L 2.86 36.83 L 5.71 35.31 L 8.57 33.00 L 11.43 30.33 L 14.29 27.85 L 17.14 26.04 L 20.00 25.27 L 22.86 25.67 L 25.71 27.19 L 28.57 29.50 L 31.43 32.17 L 34.29 34.65 L 37.14 36.46 L 40.00 37.23 L 42.86 36.83 L 45.71 35.31 L 48.57 33.00 L 51.43 30.33 L 54.29 27.85 L 57.14 26.04 L 60.00 25.27 L 62.86 25.67 L 65.71 27.19 L 68.57 29.50 L 71.43 32.17 L 74.29 34.65 L 77.14 36.46 L 80.00 37.23 L 82.86 36.83 L 85.71 35.31 L 88.57 33.00 L 91.43 30.33 L 94.29 27.85 L 97.14 26.04 L 100.00 25.27" fill="none"/><path d="M 0.00 37.50 L 2.86 42.17 L 5.71 40.08 L 8.57 37.47 L 11.43 34.87 L 14.29 32.79 L 17.14 31.64 L 20.00 31.66 L 22.86 32.83 L 25.71 34.92 L 28.57 37.53 L 31.43 40.13 L 34.29 42.21 L 37.14 43.36 L 40.00 43.34 L 42.86 42.17 L 45.71 40.08 L 48.57 37.47 L 51.43 34.87 L 54.29 32.79 L 57.14 31.64 L 60.00 31.66 L 62.86 32.83 L 65.71 34.92 L 68.57 37.53 L 71.43 40.13 L 74.29 42.21 L 77.14 43.36 L 80.00 43.34 L 82.86 42.17 L 85.71 40.08 L 88.57 37.47 L 91.43 34.87 L 94.29 32.79 L 97.14 31.64 L 100.00 31.66" fill="none"/><path d="M 0.00 43.75 L 2.86 47.10 L 5.71 44.61 L 8.57 41.95 L 11.43 39.64 L 14.29 38.15 L 17.14 37.77 L 20.00 38.57 L 22.86 40.40 L 25.71 42.89 L 28.57 45.55 L 31.43 47.86 L 34.29 49.35 L 37.14 49.73 L 40.00 48.93 L 42.86 47.10 L 45.71 44.61 L 48.57 41.95 L 51.43 39.64 L 54.29 38.15 L 57.14 37.77 L 60.00 38.57 L 62.86 40.40 L 65.71 42.89 L 68.57 45.55 L 71.43 47.86 L 74.29 49.35 L 77.14 49.73 L 80.00 48.93 L 82.86 47.10 L 85.71 44.61 L 88.57 41.95 L 91.43 39.64 L 94.29 38.15 L 97.14 37.77 L 100.00 38.57" fill="none"/><path d="M 0.00 50.00 L 2.86 51.73 L 5.71 49.07 L 8.57 46.59 L 11.43 44.78 L 14.29 44.01 L 17.14 44.43 L 20.00 45.95 L 22.86 48.27 L 25.71 50.93 L 28.57 53.41 L 31.43 55.22 L 34.29 55.99 L 37.14 55.57 L 40.00 54.05 L 42.86 51.73 L 45.71 49.07 L 48.57 46.59 L 51.43 44.78 L 54.29 44.01 L 57.14 44.43 L 60.00 45.95 L 62.86 48.27 L 65.71 50.93 L 68.57 53.41 L 71.43 55.22 L 74.29 55.99 L 77.14 55.57 L 80.00 54.05 L 82.86 51.73 L 85.71 49.07 L 88.57 46.59 L 91.43 44.78 L 94.29 44.01 L 97.14 44.43 L 100.00 45.95" fill="none"/><path d="M 0.00 56.25 L 2.86 56.21 L 5.71 53.61 L 8.57 51.53 L 11.43 50.39 L 14.29 50.41 L 17.14 51.59 L 20.00 53.69 L 22.86 56.29 L 25.71 58.89 L 28.57 60.97 L 31.43 62.11 L 34.29 62.09 L 37.14 60.91 L 40.00 58.81 L 42.86 56.21 L 45.71 53.61 L 48.57 51.53 L 51.43 50.39 L 54.29 50.41 L 57.14 51.59 L 60.00 53.69 L 62.86 56.29 L 65.71 58.89 L 68.57 60.97 L 71.43 62.11 L 74.29 62.09 L 77.14 60.91 L 80.00 58.81 L 82.86 56.21 L 85.71 53.61 L 88.57 51.53 L 91.43 50.39 L 94.29 50.41 L 97.14 51.59 L 100.00 53.69" fill="none"/><path d="M 0.00 62.50 L 2.86 60.69 L 5.71 58.38 L 8.57 56.90 L 11.43 56.52 L 14.29 57.33 L 17.14 59.16 L 20.00 61.65 L 22.86 64.31 L 25.71 66.62 L 28.57 68.10 L 31.43 68.48 L 34.29 67.67 L 37.14 65.84 L 40.00 63.35 L 42.86 60.69 L 45.71 58.38 L 48.57 56.90 L 51.43 56.52 L 54.29 57.33 L 57.14 59.16 L 60.00 61.65 L 62.86 64.31 L 65.71 66.62 L 68.57 68.10 L 71.43 68.48 L 74.29 67.67 L 77.14 65.84 L 80.00 63.35 L 82.86 60.69 L 85.71 58.38 L 88.57 56.90 L 91.43 56.52 L 94.29 57.33 L 97.14 59.16 L 100.00 61.65" fill="none"/><path d="M 0.00 68.75 L 2.86 65.33 L 5.71 63.53 L 8.57 62.76 L 11.43 63.18 L 14.29 64.71 L 17.14 67.03 L 20.00 69.70 L 22.86 72.17 L 25.71 73.97 L 28.57 74.74 L 31.43 74.32 L 34.29 72.79 L 37.14 70.47 L 40.00 67.80 L 42.86 65.33 L 45.71 63.53 L 48.57 62.76 L 51.43 63.18 L 54.29 64.71 L 57.14 67.03 L 60.00 69.70 L 62.86 72.17 L 65.71 73.97 L 68.57 74.74 L 71.43 74.32 L 74.29 72.79 L 77.14 70.47 L 80.00 67.80 L 82.86 65.33 L 85.71 63.53 L 88.57 62.76 L 91.43 63.18 L 94.29 64.71 L 97.14 67.03 L 100.00 69.70" fill="none"/><path d="M 0.00 75.00 L 2.86 70.27 L 5.71 69.14 L 8.57 69.16 L 11.43 70.35 L 14.29 72.45 L 17.14 75.06 L 20.00 77.66 L 22.86 79.73 L 25.71 80.86 L 28.57 80.84 L 31.43 79.65 L 34.29 77.55 L 37.14 74.94 L 40.00 72.34 L 42.86 70.27 L 45.71 69.14 L 48.57 69.16 L 51.43 70.35 L 54.29 72.45 L 57.14 75.06 L 60.00 77.66 L 62.86 79.73 L 65.71 80.86 L 68.57 80.84 L 71.43 79.65 L 74.29 77.55 L 77.14 74.94 L 80.00 72.34 L 82.86 70.27 L 85.71 69.14 L 88.57 69.16 L 91.43 70.35 L 94.29 72.45 L 97.14 75.06 L 100.00 77.66" fill="none"/><path d="M 0.00 81.25 L 2.86 75.64 L 5.71 75.27 L 8.57 76.09 L 11.43 77.92 L 14.29 80.42 L 17.14 83.08 L 20.00 85.38 L 22.86 86.86 L 25.71 87.23 L 28.57 86.41 L 31.43 84.58 L 34.29 82.08 L 37.14 79.42 L 40.00 77.12 L 42.86 75.64 L 45.71 75.27 L 48.57 76.09 L 51.43 77.92 L 54.29 80.42 L 57.14 83.08 L 60.00 85.38 L 62.86 86.86 L 65.71 87.23 L 68.57 86.41 L 71.43 84.58 L 74.29 82.08 L 77.14 79.42 L 80.00 77.12 L 82.86 75.64 L 85.71 75.27 L 88.57 76.09 L 91.43 77.92 L 94.29 80.42 L 97.14 83.08 L 100.00 85.38" fill="none"/><path d="M 0.00 87.50 L 2.86 81.51 L 5.71 81.94 L 8.57 83.47 L 11.43 85.80 L 14.29 88.46 L 17.14 90.94 L 20.00 92.73 L 22.86 93.49 L 25.71 93.06 L 28.57 91.53 L 31.43 89.20 L 34.29 86.54 L 37.14 84.06 L 40.00 82.27 L 42.86 81.51 L 45.71 81.94 L 48.57 83.47 L 51.43 85.80 L 54.29 88.46 L 57.14 90.94 L 60.00 92.73 L 62.86 93.49 L 65.71 93.06 L 68.57 91.53 L 71.43 89.20 L 74.29 86.54 L 77.14 84.06 L 80.00 82.27 L 82.86 81.51 L 85.71 81.94 L 88.57 83.47 L 91.43 85.80 L 94.29 88.46 L 97.14 90.94 L 100.00 92.73" fill="none"/><path d="M 0.00 93.75 L 2.86 87.92 L 5.71 89.10 L 8.57 91.21 L 11.43 93.82 L 14.29 96.42 L 17.14 98.49 L 20.00 99.62 L 22.86 99.58 L 25.71 98.40 L 28.57 96.29 L 31.43 93.68 L 34.29 91.08 L 37.14 89.01 L 40.00 87.88 L 42.86 87.92 L 45.71 89.10 L 48.57 91.21 L 51.43 93.82 L 54.29 96.42 L 57.14 98.49 L 60.00 99.62 L 62.86 99.58 L 65.71 98.40 L 68.57 96.29 L 71.43 93.68 L 74.29 91.08 L 77.14 89.01 L 80.00 87.88 L 82.86 87.92 L 85.71 89.10 L 88.57 91.21 L 91.43 93.82 L 94.29 96.42 L 97.14 98.49 L 100.00 99.62" fill="none"/><path d="M 0.00 100.00 L 2.86 94.84 L 5.71 96.68 L 8.57 99.18 L 11.43 101.84 L 14.29 104.14 L 17.14 105.61 L 20.00 105.98 L 22.86 105.16 L 25.71 103.32 L 28.57 100.82 L 31.43 98.16 L 34.29 95.86 L 37.14 94.39 L 40.00 94.02 L 42.86 94.84 L 45.71 96.68 L 48.57 99.18 L 51.43 101.84 L 54.29 104.14 L 57.14 105.61 L 60.00 105.98 L 62.86 105.16 L 65.71 103.32 L 68.57 100.82 L 71.43 98.16 L 74.29 95.86 L 77.14 94.39 L 80.00 94.02 L 82.86 94.84 L 85.71 96.68 L 88.57 99.18 L 91.43 101.84 L 94.29 104.14 L 97.14 105.61 L 100.00 105.98" fill="none"/><path d="M 0.00 0.00 L 2.60 2.86 L 4.69 5.71 L 5.85 8.57 L 5.85 11.43 L 4.69 14.29 L 2.60 17.14 L 0.00 20.00 L -2.60 22.86 L -4.69 25.71 L -5.85 28.57 L -5.85 31.43 L -4.69 34.29 L -2.60 37.14 L -0.00 40.00 L 2.60 42.86 L 4.69 45.71 L 5.85 48.57 L 5.85 51.43 L 4.69 54.29 L 2.60 57.14 L 0.00 60.00 L -2.60 62.86 L -4.69 65.71 L -5.85 68.57 L -5.85 71.43 L -4.69 74.29 L -2.60 77.14 L -0.00 80.00 L 2.60 82.86 L 4.69 85.71 L 5.85 88.57 L 5.85 91.43 L 4.69 94.29 L 2.60 97.14 L 0.00 100.00" fill="none"/><path d="M 6.25 0.00 L 10.33 2.86 L 11.84 5.71 L 12.23 8.57 L 11.44 11.43 L 9.63 14.29 L 7.14 17.14 L 4.48 20.00 L 2.17 22.86 L 0.66 25.71 L 0.27 28.57 L 1.06 31.43 L 2.87 34.29 L 5.36 37.14 L 8.02 40.00 L 10.33 42.86 L 11.84 45.71 L 12.23 48.57 L 11.44 51.43 L 9.63 54.29 L 7.14 57.14 L 4.48 60.00 L 2.17 62.86 L 0.66 65.71 L 0.27 68.57 L 1.06 71.43 L 2.87 74.29 L 5.36 77.14 L 8.02 80.00 L 10.33 82.86 L 11.84 85.71 L 12.23 88.57 L 11.44 91.43 L 9.63 94.29 L 7.14 97.14 L 4.48 100.00" fill="none"/><path d="M 12.50 0.00 L 17.70 2.86 L 18.48 5.71 L 18.08 8.57 L 16.57 11.43 L 14.26 14.29 L 11.60 17.14 L 9.11 20.00 L 7.30 22.86 L 6.52 25.71 L 6.92 28.57 L 8.43 31.43 L 10.74 34.29 L 13.40 37.14 L 15.89 40.00 L 17.70 42.86 L 18.48 45.71 L 18.08 48.57 L 16.57 51.43 L 14.26 54.29 L 11.60 57.14 L 9.11 60.00 L 7.30 62.86 L 6.52 65.71 L 6.92 68.57 L 8.43 71.43 L 10.74 74.29 L 13.40 77.14 L 15.89 80.00 L 17.70 82.86 L 18.48 85.71 L 18.08 88.57 L 16.57 91.43 L 14.26 94.29 L 11.60 97.14 L 9.11 100.00" fill="none"/><path d="M 18.75 0.00 L 24.60 2.86 L 24.60 5.71 L 23.43 8.57 L 21.34 11.43 L 18.74 14.29 L 16.13 17.14 L 14.05 20.00 L 12.90 22.86 L 12.90 25.71 L 14.07 28.57 L 16.16 31.43 L 18.76 34.29 L 21.37 37.14 L 23.45 40.00 L 24.60 42.86 L 24.60 45.71 L 23.43 48.57 L 21.34 51.43 L 18.74 54.29 L 16.13 57.14 L 14.05 60.00 L 12.90 62.86 L 12.90 65.71 L 14.07 68.57 L 16.16 71.43 L 18.76 74.29 L 21.37 77.14 L 23.45 80.00 L 24.60 82.86 L 24.60 85.71 L 23.43 88.57 L 21.34 91.43 L 18.74 94.29 L 16.13 97.14 L 14.05 100.00" fill="none"/><path d="M 25.00 0.00 L 30.98 2.86 L 30.19 5.71 L 28.36 8.57 L 25.88 11.43 L 23.21 14.29 L 20.90 17.14 L 19.41 20.00 L 19.02 22.86 L 19.81 25.71 L 21.64 28.57 L 24.12 31.43 L 26.79 34.29 L 29.10 37.14 L 30.59 40.00 L 30.98 42.86 L 30.19 45.71 L 28.36 48.57 L 25.88 51.43 L 23.21 54.29 L 20.90 57.14 L 19.41 60.00 L 19.02 62.86 L 19.81 65.71 L 21.64 68.57 L 24.12 71.43 L 26.79 74.29 L 29.10 77.14 L 30.59 80.00 L 30.98 82.86 L 30.19 85.71 L 28.36 88.57 L 25.88 91.43 L 23.21 94.29 L 20.90 97.14 L 19.41 100.00" fill="none"/><path d="M 31.25 0.00 L 36.83 2.86 L 35.31 5.71 L 33.00 8.57 L 30.33 11.43 L 27.85 14.29 L 26.04 17.14 L 25.27 20.00 L 25.67 22.86 L 27.19 25.71 L 29.50 28.57 L 32.17 31.43 L 34.65 34.29 L 36.46 37.14 L 37.23 40.00 L 36.83 42.86 L 35.31 45.71 L 33.00 48.57 L 30.33 51.43 L 27.85 54.29 L 26.04 57.14 L 25.27 60.00 L 25.67 62.86 L 27.19 65.71 L 29.50 68.57 L 32.17 71.43 L 34.65 74.29 L 36.46 77.14 L 37.23 80.00 L 36.83 82.86 L 35.31 85.71 L 33.00 88.57 L 30.33 91.43 L 27.85 94.29 L 26.04 97.14 L 25.27 100.00" fill="none"/><path d="M 37.50 0.00 L 42.17 2.86 L 40.08 5.71 L 37.47 8.57 L 34.87 11.43 L 32.79 14.29 L 31.64 17.14 L 31.66 20.00 L 32.83 22.86 L 34.92 25.71 L 37.53 28.57 L 40.13 31.43 L 42.21 34.29 L 43.36 37.14 L 43.34 40.00 L 42.17 42.86 L 40.08 45.71 L 37.47 48.57 L 34.87 51.43 L 32.79 54.29 L 31.64 57.14 L 31.66 60.00 L 32.83 62.86 L 34.92 65.71 L 37.53 68.57 L 40.13 71.43 L 42.21 74.29 L 43.36 77.14 L 43.34 80.00 L 42.17 82.86 L 40.08 85.71 L 37.47 88.57 L 34.87 91.43 L 32.79 94.29 L 31.64 97.14 L 31.66 100.00" fill="none"/><path d="M 43.75 0.00 L 47.10 2.86 L 44.61 5.71 L 41.95 8.57 L 39.64 11.43 L 38.15 14.29 L 37.77 17.14 L 38.57 20.00 L 40.40 22.86 L 42.89 25.71 L 45.55 28.57 L 47.86 31.43 L 49.35 34.29 L 49.73 37.14 L 48.93 40.00 L 47.10 42.86 L 44.61 45.71 L 41.95 48.57 L 39.64 51.43 L 38.15 54.29 L 37.77 57.14 L 38.57 60.00 L 40.40 62.86 L 42.89 65.71 L 45.55 68.57 L 47.86 71.43 L 49.35 74.29 L 49.73 77.14 L 48.93 80.00 L 47.10 82.86 L 44.61 85.71 L 41.95 88.57 L 39.64 91.43 L 38.15 94.29 L 37.77 97.14 L 38.57 100.00" fill="none"/><path d="M 50.00 0.00 L 51.73 2.86 L 49.07 5.71 L 46.59 8.57 L 44.78 11.43 L 44.01 14.29 L 44.43 17.14 L 45.95 20.00 L 48.27 22.86 L 50.93 25.71 L 53.41 28.57 L 55.22 31.43 L 55.99 34.29 L 55.57 37.14 L 54.05 40.00 L 51.73 42.86 L 49.07 45.71 L 46.59 48.57 L 44.78 51.43 L 44.01 54.29 L 44.43 57.14 L 45.95 60.00 L 48.27 62.86 L 50.93 65.71 L 53.41 68.57 L 55.22 71.43 L 55.99 74.29 L 55.57 77.14 L 54.05 80.00 L 51.73 82.86 L 49.07 85.71 L 46.59 88.57 L 44.78 91.43 L 44.01 94.29 L 44.43 97.14 L 45.95 100.00" fill="none"/><path d="M 56.25 0.00 L 56.21 2.86 L 53.61 5.71 L 51.53 8.57 L 50.39 11.43 L 50.41 14.29 L 51.59 17.14 L 53.69 20.00 L 56.29 22.86 L 58.89 25.71 L 60.97 28.57 L 62.11 31.43 L 62.09 34.29 L 60.91 37.14 L 58.81 40.00 L 56.21 42.86 L 53.61 45.71 L 51.53 48.57 L 50.39 51.43 L 50.41 54.29 L 51.59 57.14 L 53.69 60.00 L 56.29 62.86 L 58.89 65.71 L 60.97 68.57 L 62.11 71.43 L 62.09 74.29 L 60.91 77.14 L 58.81 80.00 L 56.21 82.86 L 53.61 85.71 L 51.53 88.57 L 50.39 91.43 L 50.41 94.29 L 51.59 97.14 L 53.69 100.00" fill="none"/><path d="M 62.50 0.00 L 60.69 2.86 L 58.38 5.71 L 56.90 8.57 L 56.52 11.43 L 57.33 14.29 L 59.16 17.14 L 61.65 20.00 L 64.31 22.86 L 66.62 25.71 L 68.10 28.57 L 68.48 31.43 L 67.67 34.29 L 65.84 37.14 L 63.35 40.00 L 60.69 42.86 L 58.38 45.71 L 56.90 48.57 L 56.52 51.43 L 57.33 54.29 L 59.16 57.14 L 61.65 60.00 L 64.31 62.86 L 66.62 65.71 L 68.10 68.57 L 68.48 71.43 L 67.67 74.29 L 65.84 77.14 L 63.35 80.00 L 60.69 82.86 L 58.38 85.71 L 56.90 88.57 L 56.52 91.43 L 57.33 94.29 L 59.16 97.14 L 61.65 100.00" fill="none"/><path d="M 68.75 0.00 L 65.33 2.86 L 63.53 5.71 L 62.76 8.57 L 63.18 11.43 L 64.71 14.29 L 67.03 17.14 L 69.70 20.00 L 72.17 22.86 L 73.97 25.71 L 74.74 28.57 L 74.32 31.43 L 72.79 34.29 L 70.47 37.14 L 67.80 40.00 L 65.33 42.86 L 63.53 45.71 L 62.76 48.57 L 63.18 51.43 L 64.71 54.29 L 67.03 57.14 L 69.70 60.00 L 72.17 62.86 L 73.97 65.71 L 74.74 68.57 L 74.32 71.43 L 72.79 74.29 L 70.47 77.14 L 67.80 80.00 L 65.33 82.86 L 63.53 85.71 L 62.76 88.57 L 63.18 91.43 L 64.71 94.29 L 67.03 97.14 L 69.70 100.00" fill="none"/><path d="M 75.00 0.00 L 70.27 2.86 L 69.14 5.71 L 69.16 8.57 L 70.35 11.43 L 72.45 14.29 L 75.06 17.14 L 77.66 20.00 L 79.73 22.86 L 80.86 25.71 L 80.84 28.57 L 79.65 31.43 L 77.55 34.29 L 74.94 37.14 L 72.34 40.00 L 70.27 42.86 L 69.14 45.71 L 69.16 48.57 L 70.35 51.43 L 72.45 54.29 L 75.06 57.14 L 77.66 60.00 L 79.73 62.86 L 80.86 65.71 L 80.84 68.57 L 79.65 71.43 L 77.55 74.29 L 74.94 77.14 L 72.34 80.00 L 70.27 82.86 L 69.14 85.71 L 69.16 88.57 L 70.35 91.43 L 72.45 94.29 L 75.06 97.14 L 77.66 100.00" fill="none"/><path d="M 81.25 0.00 L 75.64 2.86 L 75.27 5.71 L 76.09 8.57 L 77.92 11.43 L 80.42 14.29 L 83.08 17.14 L 85.38 20.00 L 86.86 22.86 L 87.23 25.71 L 86.41 28.57 L 84.58 31.43 L 82.08 34.29 L 79.42 37.14 L 77.12 40.00 L 75.64 42.86 L 75.27 45.71 L 76.09 48.57 L 77.92 51.43 L 80.42 54.29 L 83.08 57.14 L 85.38 60.00 L 86.86 62.86 L 87.23 65.71 L 86.41 68.57 L 84.58 71.43 L 82.08 74.29 L 79.42 77.14 L 77.12 80.00 L 75.64 82.86 L 75.27 85.71 L 76.09 88.57 L 77.92 91.43 L 80.42 94.29 L 83.08 97.14 L 85.38 100.00" fill="none"/><path d="M 87.50 0.00 L 81.51 2.86 L 81.94 5.71 L 83.47 8.57 L 85.80 11.43 L 88.46 14.29 L 90.94 17.14 L 92.73 20.00 L 93.49 22.86 L 93.06 25.71 L 91.53 28.57 L 89.20 31.43 L 86.54 34.29 L 84.06 37.14 L 82.27 40.00 L 81.51 42.86 L 81.94 45.71 L 83.47 48.57 L 85.80 51.43 L 88.46 54.29 L 90.94 57.14 L 92.73 60.00 L 93.49 62.86 L 93.06 65.71 L 91.53 68.57 L 89.20 71.43 L 86.54 74.29 L 84.06 77.14 L 82.27 80.00 L 81.51 82.86 L 81.94 85.71 L 83.47 88.57 L 85.80 91.43 L 88.46 94.29 L 90.94 97.14 L 92.73 100.00" fill="none"/><path d="M 93.75 0.00 L 87.92 2.86 L 89.10 5.71 L 91.21 8.57 L 93.82 11.43 L 96.42 14.29 L 98.49 17.14 L 99.62 20.00 L 99.58 22.86 L 98.40 25.71 L 96.29 28.57 L 93.68 31.43 L 91.08 34.29 L 89.01 37.14 L 87.88 40.00 L 87.92 42.86 L 89.10 45.71 L 91.21 48.57 L 93.82 51.43 L 96.42 54.29 L 98.49 57.14 L 99.62 60.00 L 99.58 62.86 L 98.40 65.71 L 96.29 68.57 L 93.68 71.43 L 91.08 74.29 L 89.01 77.14 L 87.88 80.00 L 87.92 82.86 L 89.10 85.71 L 91.21 88.57 L 93.82 91.43 L 96.42 94.29 L 98.49 97.14 L 99.62 100.00" fill="none"/><path d="M 100.00 0.00 L 94.84 2.86 L 96.68 5.71 L 99.18 8.57 L 101.84 11.43 L 104.14 14.29 L 105.61 17.14 L 105.98 20.00 L 105.16 22.86 L 103.32 25.71 L 100.82 28.57 L 98.16 31.43 L 95.86 34.29 L 94.39 37.14 L 94.02 40.00 L 94.84 42.86 L 96.68 45.71 L 99.18 48.57 L 101.84 51.43 L 104.14 54.29 L 105.61 57.14 L 105.98 60.00 L 105.16 62.86 L 103.32 65.71 L 100.82 68.57 L 98.16 71.43 L 95.86 74.29 L 94.39 77.14 L 94.02 80.00 L 94.84 82.86 L 96.68 85.71 L 99.18 88.57 L 101.84 91.43 L 104.14 94.29 L 105.61 97.14 L 105.98 100.00" fill="none"/></g>
</svg>