<svg xmlns="http://www.w3.org/2000/svg" viewBox="0 0 100 100" width="100" height="100">
  <g stroke="#9A8B55" stroke-width="0.8" vector-effect="non-scaling-stroke"><path d="M 0.00 0.00 L 2.86 5.33 L 5.71 3.60 L 8.57 1.16 L 11.43 -1.51 L 14.29 -3.88 L 17.14 -5.48 L 20.00 -6.00 L 22.86 -5.33 L 25.71 -3.60 L 28.57 -1.16 L 31.43 1.51 L 34.29 3.88 L 37.14 5.48 L 40.00 6.00 L 42.86 5.33 L 45.71 3.60 L 48.57 1.16 L 51.43 -1.51 L 54.29 -3.88 L 57.14 -5.48 L 60.00 -6.00 L 62.86 -5.33 L 65.71 -3.60 L 68.57 -1.16 L 71.43 1.51 L 74.29 3.88 L 77.14 5.48 L 80.00 6.00 L 82.86 5.33 L 85.71 3.60 L 88.57 1.16 L 91.43 -1.51 L 94.29 -3.88 L 97.14 -5.48 L 100.00 -6.00" fill="none"/><path d="M 0.00 6.25 L 2.86 10.52 L 5.71 8.27 L 8.57 5.62 L 11.43 3.10 L 14.29 1.19 L 17.14 0.29 L 20.00 0.57 L 22.86 1.98 L 25.71 4.23 L 28.57 6.88 L 31.43 9.40 L 34.29 11.31 L 37.14 12.21 L 40.00 11.93 L 42.86 10.52 L 45.71 8.27 L 48.57 5.62 L 51.43 3.10 L 54.29 1.19 L 57.14 0.29 L 60.00 0.57 L 62.86 1.98 L 65.71 4.23 L 68.57 6.88 L 71.43 9.40 L 74.29 11.31 L 77.14 12.21 L 80.00 11.93 L 82.86 10.52 L 85.71 8.27 L 88.57 5.62 L 91.43 3.10 L 94.29 1.19 L 97.14 0.29 L 100.00 0.57" fill="none"/><path d="M 0.00 12.50 L 2.86 15.34 L 5.71 12.76 L 8.57 10.14 L 11.43 7.98 L 14.29 6.71 L 17.14 6.60 L 20.00 7.65 L 22.86 9.66 L 25.71 12.24 L 28.57 14.86 L 31.43 17.02 L 34.29 18.29 L 37.14 18.40 L 40.00 17.35 L 42.86 15.34 L 45.71 12.76 L 48.57 10.14 L 51.43 7.98 L 54.29 6.71 L 57.14 6.60 L 60.00 7.65 L 62.86 9.66 L 65.71 12.24 L 68.57 14.86 L 71.43 17.02 L 74.29 18.29 L 77.14 18.40 L 80.00 17.35 L 82.86 15.34 L 85.71 12.76 L 88.57 10.14 L 91.43 7.98 L 94.29 6.71 L 97.14 6.60 L 100.00 7.65" fill="none"/><path d="M 0.00 18.75 L 2.86 19.90 L 5.71 17.23 L 8.57 14.86 L 11.43 13.26 L 14.29 12.75 L 17.14 13.43 L 20.00 15.16 L 22.86 17.60 L 25.71 20.27 L 28.57 22.64 L 31.43 24.24 L 34.29 24.75 L 37.14 24.07 L 40.00 22.34 L 42.86 19.90 L 45.71 17.23 L 48.57 14.86 L 51.43 13.26 L 54.29 12.75 L 57.14 13.43 L 60.00 15.16 L 62.86 17.60 L 65.71 20.27 L 68.57 22.64 L 71.43 24.24 L 74.29 24.75 L 77.14 24.07 L 80.00 22.34 L 82.86 19.90 L 85.71 17.23 L 88.57 14.86 L 91.43 13.26 L 94.29 12.75 L 97.14 13.43 L 100.00 15.16" fill="none"/><path d="M 0.00 25.00 L 2.86 24.36 L 5.71 21.83 L 8.57 19.94 L 11.43 19.04 L 14.29 19.33 L 17.14 20.74 L 20.00 22.99 L 22.86 25.64 L 25.71 28.17 L 28.57 30.06 L 31.43 30.96 L 34.29 30.67 L 37.14 29.26 L 40.00 27.01 L 42.86 24.36 L 45.71 21.83 L 48.57 19.94 L 51.43 19.04 L 54.29 19.33 L 57.14 20.74 L 60.00 22.99 L 62.86 25.64 L 65.71 28.17 L 68.57 30.06 L 71.43 30.96 L 74.29 30.67 L 77.14 29.26 L 80.00 27.01 L 82.86 24.36 L 85.71 21.83 L 88.57 19.94 L 91.43 19.04 L 94.29 19.33 L 97.14 20.74 L 100.00 22.99" fill="none"/><path d="M 0.00 31.25 L 2.86 28.87 L 5.71 26.72 L 8.57 25.46 L 11.43 25.35 L 14.29 26.41 L 17.14 28.42 L 20.00 31.00 L 22.86 33.63 L 25.71 35.78 L 28.57 37.04 L 31.43 37.15 L 34.29 36.09 L 37.14 34.08 L 40.00 31.50 L 42.86 28.87 L 45.71 26.72 L 48.57 25.46 L 51.43 25.35 L 54.29 26.41 L 57.14 28.42 L 60.00 31.00 L 62.86 33.63 L 65.71 35.78 L 68.57 37.04 L 71.43 37.15 L 74.29 36.09 L 77.14 34.08 L 80.00 31.50 L 82.86 28.87 L 85.71 26.72 L 88.57 25.46 L 91.43 25.35 L 94.29 26.41 L 97.14 28.42 L 100.00 31.00" fill="none"/><path d="M 0.00 37.50 L 2.86 33.60 L 5.71 32.01 L 8.57 31.50 L 11.43 32.19 L 14.29 33.92 L 17.14 36.36 L 20.00 39.03 L 22.86 41.40 L 25.71 42.99 L 28.57 43.50 L 31.43 42.81 L 34.29 41.08 L 37.14 38.64 L 40.00 35.97 L 42.86 33.60 L 45.71 32.01 L 48.57 31.50 L 51.43 32.19 L 54.29 33.92 L 57.14 36.36 L 60.00 39.03 L 62.86 41.40 L 65.71 42.99 L 68.57 43.50 L 71.43 42.81 L 74.29 41.08 L 77.14 38.64 L 80.00 35.97 L 82.86 33.60 L 85.71 32.01 L 88.57 31.50 L 91.43 32.19 L 94.29 33.92 L 97.14 36.36 L 100.00 39.03" fill="none"/><path d="M 0.00 43.75 L 2.86 38.68 L 5.71 37.79 L 8.57 38.08 L 11.43 39.50 L 14.29 41.75 L 17.14 44.41 L 20.00 46.93 L 22.86 48.82 L 25.71 49.71 L 28.57 49.42 L 31.43 48.00 L 34.29 45.75 L 37.14 43.09 L 40.00 40.57 L 42.86 38.68 L 45.71 37.79 L 48.57 38.08 L 51.43 39.50 L 54.29 41.75 L 57.14 44.41 L 60.00 46.93 L 62.86 48.82 L 65.71 49.71 L 68.57 49.42 L 71.43 48.00 L 74.29 45.75 L 77.14 43.09 L 80.00 40.57 L 82.86 38.68 L 85.71 37.79 L 88.57 38.08 L 91.43 39.50 L 94.29 41.75 L 97.14 44.41 L 100.00 46.93" fill="none"/><path d="M 0.00 50.00 L 2.86 44.21 L 5.71 44.10 L 8.57 45.17 L 11.43 47.19 L 14.29 49.76 L 17.14 52.39 L 20.00 54.54 L 22.86 55.79 L 25.71 55.90 L 28.57 54.83 L 31.43 52.81 L 34.29 50.24 L 37.14 47.61 L 40.00 45.46 L 42.86 44.21 L 45.71 44.10 L 48.57 45.17 L 51.43 47.19 L 54.29 49.76 L 57.14 52.39 L 60.00 54.54 L 62.86 55.79 L 65.71 55.90 L 68.57 54.83 L 71.43 52.81 L 74.29 50.24 L 77.14 47.61 L 80.00 45.46 L 82.86 44.21 L 85.71 44.10 L 88.57 45.17 L 91.43 47.19 L 94.29 49.76 L 97.14 52.39 L 100.00 54.54" fill="none"/><path d="M 0.00 56.25 L 2.86 50.25 L 5.71 50.94 L 8.57 52.68 L 11.43 55.13 L 14.29 57.80 L 17.14 60.16 L 20.00 61.75 L 22.86 62.25 L 25.71 61.56 L 28.57 59.82 L 31.43 57.37 L 34.29 54.70 L 37.14 52.34 L 40.00 50.75 L 42.86 50.25 L 45.71 50.94 L 48.57 52.68 L 51.43 55.13 L 54.29 57.80 L 57.14 60.16 L 60.00 61.75 L 62.86 62.25 L 65.71 61.56 L 68.57 59.82 L 71.43 57.37 L 74.29 54.70 L 77.14 52.34 L 80.00 50.75 L 82.86 50.25 L 85.71 50.94 L 88.57 52.68 L 91.43 55.13 L 94.29 57.80 L 97.14 60.16 L 100.00 61.75" fill="none"/><path d="M 0.00 62.50 L 2.86 56.84 L 5.71 58.26 L 8.57 60.52 L 11.43 63.17 L 14.29 65.69 L 17.14 67.58 L 20.00 68.46 L 22.86 68.16 L 25.71 66.74 L 28.57 64.48 L 31.43 61.83 L 34.29 59.31 L 37.14 57.42 L 40.00 56.54 L 42.86 56.84 L 45.71 58.26 L 48.57 60.52 L 51.43 63.17 L 54.29 65.69 L 57.14 67.58 L 60.00 68.46 L 62.86 68.16 L 65.71 66.74 L 68.57 64.48 L 71.43 61.83 L 74.29 59.31 L 77.14 57.42 L 80.00 56.54 L 82.86 56.84 L 85.71 58.26 L 88.57 60.52 L 91.43 63.17 L 94.29 65.69 L 97.14 67.58 L 100.00 68.46" fill="none"/><path d="M 0.00 68.75 L 2.86 63.92 L 5.71 65.95 L 8.57 68.53 L 11.43 71.15 L 14.29 73.30 L 17.14 74.55 L 20.00 74.64 L 22.86 73.58 L 25.71 71.55 L 28.57 68.97 L 31.43 66.35 L 34.29 64.20 L 37.14 62.95 L 40.00 62.86 L 42.86 63.92 L 45.71 65.95 L 48.57 68.53 L 51.43 71.15 L 54.29 73.30 L 57.14 74.55 L 60.00 74.64 L 62.86 73.58 L 65.71 71.55 L 68.57 68.97 L 71.43 66.35 L 74.29 64.20 L 77.14 62.95 L 80.00 62.86 L 82.86 63.92 L 85.71 65.95 L 88.57 68.53 L 91.43 71.15 L 94.29 73.30 L 97.14 74.55 L 100.00 74.64" fill="none"/><path d="M 0.00 75.00 L 2.86 71.44 L 5.71 73.89 L 8.57 76.56 L 11.43 78.92 L 14.29 80.50 L 17.14 81.00 L 20.00 80.30 L 22.86 78.56 L 25.71 76.11 L 28.57 73.44 L 31.43 71.08 L 34.29 69.50 L 37.14 69.00 L 40.00 69.70 L 42.86 71.44 L 45.71 73.89 L 48.57 76.56 L 51.43 78.92 L 54.29 80.50 L 57.14 81.00 L 60.00 80.30 L 62.86 78.56 L 65.71 76.11 L 68.57 73.44 L 71.43 71.08 L 74.29 69.50 L 77.14 69.00 L 80.00 69.70 L 82.86 71.44 L 85.71 73.89 L 88.57 76.56 L 91.43 78.92 L 94.29 80.50 L 97.14 81.00 L 100.00 80.30" fill="none"/><path d="M 0.00 81.25 L 2.86 79.28 L 5.71 81.93 L 8.57 84.45 L 11.43 86.34 L 14.29 87.21 L 17.14 86.91 L 20.00 85.48 L 22.86 83.22 L 25.71 80.57 L 28.57 78.05 L 31.43 76.16 L 34.29 75.29 L 37.14 75.59 L 40.00 77.02 L 42.86 79.28 L 45.71 81.93 L 48.57 84.45 L 51.43 86.34 L 54.29 87.21 L 57.14 86.91 L 60.00 85.48 L 62.86 83.22 L 65.71 80.57 L 68.57 78.05 L 71.43 76.16 L 74.29 75.29 L 77.14 75.59 L 80.00 77.02 L 82.86 79.28 L 85.71 81.93 L 88.57 84.45 L 91.43 86.34 L 94.29 87.21 L 97.14 86.91 L 100.00 85.48" fill="none"/><path d="M 0.00 87.50 L 2.86 87.29 L 5.71 89.92 L 8.57 92.06 L 11.43 93.30 L 14.29 93.39 L 17.14 92.32 L 20.00 90.29 L 22.86 87.71 L 25.71 85.08 L 28.57 82.94 L 31.43 81.70 L 34.29 81.61 L 37.14 82.68 L 40.00 84.71 L 42.86 87.29 L 45.71 89.92 L 48.57 92.06 L 51.43 93.30 L 54.29 93.39 L 57.14 92.32 L 60.00 90.29 L 62.86 87.71 L 65.71 85.08 L 68.57 82.94 L 71.43 81.70 L 74.29 81.61 L 77.14 82.68 L 80.00 84.71 L 82.86 87.29 L 85.71 89.92 L 88.57 92.06 L 91.43 93.30 L 94.29 93.39 L 97.14 92.32 L 100.00 90.29" fill="none"/><path d="M 0.00 93.75 L 2.86 95.33 L 5.71 97.68 L 8.57 99.26 L 11.43 99.74 L 14.29 99.04 L 17.14 97.29 L 20.00 94.84 L 22.86 92.17 L 25.71 89.82 L 28.57 88.24 L 31.43 87.76 L 34.29 88.46 L 37.14 90.21 L 40.00 92.66 L 42.86 95.33 L 45.71 97.68 L 48.57 99.26 L 51.43 99.74 L 54.29 99.04 L 57.14 97.29 L 60.00 94.84 L 62.86 92.17 L 65.71 89.82 L 68.57 88.24 L 71.43 87.76 L 74.29 88.46 L 77.14 90.21 L 80.00 92.66 L 82.86 95.33 L 85.71 97.68 L 88.57 99.26 L 91.43 99.74 L 94.29 99.04 L 97.14 97.29 L 100.00 94.84" fill="none"/><path d="M 0.00 100.00 L 2.86 103.22 L 5.71 105.10 L 8.57 105.97 L 11.43 105.65 L 14.29 104.22 L 17.14 101.96 L 20.00 99.30 L 22.86 96.78 L 25.71 94.90 L 28.57 94.03 L 31.43 94.35 L 34.29 95.78 L 37.14 98.04 L 40.00 100.70 L 42.86 103.22 L 45.71 105.10 L 48.57 105.97 L 51.43 105.65 L 54.29 104.22 L 57.14 101.96 L 60.00 99.30 L 62.86 96.78 L 65.71 94.90 L 68.57 94.03 L 71.43 94.35 L 74.29 95.78 L 77.14 98.04 L 80.00 100.70 L 82.86 103.22 L 85.71 105.10 L 88.57 105.97 L 91.43 105.65 L 94.29 104.22 L 97.14 101.96 L 100.00 99.30" fill="none"/><path d="M 0.00 0.00 L 5.33 2.86 L 3.60 5.71 L 1.16 8.57 L -1.51 11.43 L -3.88 14.29 L -5.48 17.14 L -6.00 20.00 L -5.33 22.86 L -3.60 25.71 L -1.16 28.57 L 1.51 31.43 L 3.88 34.29 L 5.48 37.14 L 6.00 40.00 L 5.33 42.86 L 3.60 45.71 L 1.16 48.57 L -1.51 51.43 L -3.88 54.29 L -5.48 57.14 L -6.00 60.00 L -5.33 62.86 L -3.60 65.71 L -1.16 68.57 L 1.51 71.43 L 3.88 74.29 L 5.48 77.14 L 6.00 80.00 L 5.33 82.86 L 3.60 85.71 L 1.16 88.57 L -1.51 91.43 L -3.88 94.29 L -5.48 97.14 L -6.00 100.00" fill="none"/><path d="M 6.25 0.00 L 10.52 2.86 L 8.27 5.71 L 5.62 8.57 L 3.10 11.43 L 1.19 14.29 L 0.29 17.14 L 0.57 20.00 L 1.98 22.86 L 4.23 25.71 L 6.88 28.57 L 9.40 31.43 L 11.31 34.29 L 12.21 37.14 L 11.93 40.00 L 10.52 42.86 L 8.27 45.71 L 5.62 48.57 L 3.10 51.43 L 1.19 54.29 L 0.29 57.14 L 0.57 60.00 L 1.98 62.86 L 4.23 65.71 L 6.88 68.57 L 9.40 71.43 L 11.31 74.29 L 12.21 77.14 L 11.93 80.00 L 10.52 82.86 L 8.27 85.71 L 5.62 88.57 L 3.10 91.43 L 1.19 94.29 L 0.29 97.14 L 0.57 100.00" fill="none"/><path d="M 12.50 0.00 L 15.34 2.86 L 12.76 5.71 L 10.14 8.57 L 7.98 11.43 L 6.71 14.29 L 6.60 17.14 L 7.65 20.00 L 9.66 22.86 L 12.24 25.71 L 14.86 28.57 L 17.02 31.43 L 18.29 34.29 L 18.40 37.14 L 17.35 40.00 L 15.34 42.86 L 12.76 45.71 L 10.14 48.57 L 7.98 51.43 L 6.71 54.29 L 6.60 57.14 L 7.65 60.00 L 9.66 62.86 L 12.24 65.71 L 14.86 68.57 L 17.02 71.43 L 18.29 74.29 L 18.40 77.14 L 17.35 80.00 L 15.34 82.86 L 12.76 85.71 L 10.14 88.57 L 7.98 91.43 L 6.71 94.29 L 6.60 97.14 L 7.65 100.00" fill="none"/><path d="M 18.75 0.00 L 19.90 2.86 L 17.23 5.71 L 14.86 8.57 L 13.26 11.43 L 12.75 14.29 L 13.43 17.14 L 15.16 20.00 L 17.60 22.86 L 20.27 25.71 L 22.64 28.57 L 24.24 31.43 L 24.75 34.29 L 24.07 37.14 L 22.34 40.00 L 19.90 42.86 L 17.23 45.71 L 14.86 48.57 L 13.26 51.43 L 12.75 54.29 L 13.43 57.14 L 15.16 60.00 L 17.60 62.86 L 20.27 65.71 L 22.64 68.57 L 24.24 71.43 L 24.75 74.29 L 24.07 77.14 L 22.34 80.00 L 19.90 82.86 L 17.23 85.71 L 14.86 88.57 L 13.26 91.43 L 12.75 94.29 L 13.43 97.14 L 15.16 100.00" fill="none"/><path d="M 25.00 0.00 L 24.36 2.86 L 21.83 5.71 L 19.94 8.57 L 19.04 11.43 L 19.33 14.29 L 20.74 17.14 L 22.99 20.00 L 25.64 22.86 L 28.17 25.71 L 30.06 28.57 L 30.96 31.43 L 30.67 34.29 L 29.26 37.14 L 27.01 40.00 L 24.36 42.86 L 21.83 45.71 L 19.94 48.57 L 19.04 51.43 L 19.33 54.29 L 20.74 57.14 L 22.99 60.00 L 25.64 62.86 L 28.17 65.71 L 30.06 68.57 L 30.96 71.43 L 30.67 74.29 L 29.26 77.14 L 27.01 80.00 L 24.36 82.86 L 21.83 85.71 L 19.94 88.57 L 19.04 91.43 L 19.33 94.29 L 20.74 97.14 L 22.99 100.00" fill="none"/><path d="M 31.25 0.00 L 28.87 2.86 L 26.72 5.71 L 25.46 8.57 L 25.35 11.43 L 26.41 14.29 L 28.42 17.14 L 31.00 20.00 L 33.63 22.86 L 35.78 25.71 L 37.04 28.57 L 37.15 31.43 L 36.09 34.29 L 34.08 37.14 L 31.50 40.00 L 28.87 42.86 L 26.72 45.71 L 25.46 48.57 L 25.35 51.43 L 26.41 54.29 L 28.42 57.14 L 31.00 60.00 L 33.63 62.86 L 35.78 65.71 L 37.04 68.57 L 37.15 71.43 L 36.09 74.29 L 34.08 77.14 L 31.50 80.00 L 28.87 82.86 L 26.72 85.71 L 25.46 88.57 L 25.35 91.43 L 26.41 94.29 L 28.42 97.14 L 31.00 100.00" fill="none"/><path d="M 37.50 0.00 L 33.60 2.86 L 32.01 5.71 L 31.50 8.57 L 32.19 11.43 L 33.92 14.29 L 36.36 17.14 L 39.03 20.00 L 41.40 22.86 L 42.99 25.71 L 43.50 28.57 L 42.81 31.43 L 41.08 34.29 L 38.64 37.14 L 35.97 40.00 L 33.60 42.86 L 32.01 45.71 L 31.50 48.57 L 32.19 51.43 L 33.92 54.29 L 36.36 57.14 L 39.03 60.00 L 41.40 62.86 L 42.99 65.71 L 43.50 68.57 L 42.81 71.43 L 41.08 74.29 L 38.64 77.14 L 35.97 80.00 L 33.60 82.86 L 32.01 85.71 L 31.50 88.57 L 32.19 91.43 L 33.92 94.29 L 36.36 97.14 L 39.03 100.00" fill="none"/><path d="M 43.75 0.00 L 38.68 2.86 L 37.79 5.71 L 38.08 8.57 L 39.50 11.43 L 41.75 14.29 L 44.41 17.14 L 46.93 20.00 L 48.82 22.86 L 49.71 25.71 L 49.42 28.57 L 48.00 31.43 L 45.75 34.29 L 43.09 37.14 L 40.57 40.00 L 38.68 42.86 L 37.79 45.71 L 38.08 48.57 L 39.50 51.43 L 41.75 54.29 L 44.41 57.14 L 46.93 60.00 L 48.82 62.86 L 49.71 65.71 L 49.42 68.57 L 48.00 71.43 L 45.75 74.29 L 43.09 77.14 L 40.57 80.00 L 38.68 82.86 L 37.79 85.71 L 38.08 88.57 L 39.50 91.43 L 41.75 94.29 L 44.41 97.14 L 46.93 100.00" fill="none"/><path d="M 50.00 0.00 L 44.21 2.86 L 44.10 5.71 L 45.17 8.57 L 47.19 11.43 L 49.76 14.29 L 52.39 17.14 L 54.54 20.00 L 55.79 22.86 L 55.90 25.71 L 54.83 28.57 L 52.81 31.43 L 50.24 34.29 L 47.61 37.14 L 45.46 40.00 L 44.21 42.86 L 44.10 45.71 L 45.17 48.57 L 47.19 51.43 L 49.76 54.29 L 52.39 57.14 L 54.54 60.00 L 55.79 62.86 L 55.90 65.71 L 54.83 68.57 L 52.81 71.43 L 50.24 74.29 L 47.61 77.14 L 45.46 80.00 L 44.21 82.86 L 44.10 85.71 L 45.17 88.57 L 47.19 91.43 L 49.76 94.29 L 52.39 97.14 L 54.54 100.00" fill="none"/><path d="M 56.25 0.00 L 50.25 2.86 L 50.94 5.71 L 52.68 8.57 L 55.13 11.43 L 57.80 14.29 L 60.16 17.14 L 61.75 20.00 L 62.25 22.86 L 61.56 25.71 L 59.82 28.57 L 57.37 31.43 L 54.70 34.29 L 52.34 37.14 L 50.75 40.00 L 50.25 42.86 L 50.94 45.71 L 52.68 48.57 L 55.13 51.43 L 57.80 54.29 L 60.16 57.14 L 61.75 60.00 L 62.25 62.86 L 61.56 65.71 L 59.82 68.57 L 57.37 71.43 L 54.70 74.29 L 52.34 77.14 L 50.75 80.00 L 50.25 82.86 L 50.94 85.71 L 52.68 88.57 L 55.13 91.43 L 57.80 94.29 L 60.16 97.14 L 61.75 100.00" fill="none"/><path d="M 62.50 0.00 L 56.84 2.86 L 58.26 5.71 L 60.52 8.57 L 63.17 11.43 L 65.69 14.29 L 67.58 17.14 L 68.46 20.00 L 68.16 22.86 L 66.74 25.71 L 64.48 28.57 L 61.83 31.43 L 59.31 34.29 L 57.42 37.14 L 56.54 40.00 L 56.84 42.86 L 58.26 45.71 L 60.52 48.57 L 63.17 51.43 L 65.69 54.29 L 67.58 57.14 L 68.46 60.00 L 68.16 62.86 L 66.74 65.71 L 64.48 68.57 L 61.83 71.43 L 59.31 74.29 L 57.42 77.14 L 56.54 80.00 L 56.84 82.86 L 58.26 85.71 L 60.52 88.57 L 63.17 91.43 L 65.69 94.29 L 67.58 97.14 L 68.46 100.00" fill="none"/><path d="M 68.75 0.00 L 63.92 2.86 L 65.95 5.71 L 68.53 8.57 L 71.15 11.43 L 73.30 14.29 L 74.55 17.14 L 74.64 20.00 L 73.58 22.86 L 71.55 25.71 L 68.97 28.57 L 66.35 31.43 L 64.20 34.29 L 62.95 37.14 L 62.86 40.00 L 63.92 42.86 L 65.95 45.71 L 68.53 48.57 L 71.15 51.43 L 73.30 54.29 L 74.55 57.14 L 74.64 60.00 L 73.58 62.86 L 71.55 65.71 L 68.97 68.57 L 66.35 71.43 L 64.20 74.29 L 62.95 77.14 L 62.86 80.00 L 63.92 82.86 L 65.95 85.71 L 68.53 88.57 L 71.15 91.43 L 73.30 94.29 L 74.55 97.14 L 74.64 100.00" fill="none"/><path d="M 75.00 0.00 L 71.44 2.86 L 73.89 5.71 L 76.56 8.57 L 78.92 11.43 L 80.50 14.29 L 81.00 17.14 L 80.30 20.00 L 78.56 22.86 L 76.11 25.71 L 73.44 28.57 L 71.08 31.43 L 69.50 34.29 L 69.00 37.14 L 69.70 40.00 L 71.44 42.86 L 73.89 45.71 L 76.56 48.57 L 78.92 51.43 L 80.50 54.29 L 81.00 57.14 L 80.30 60.00 L 78.56 62.86 L 76.11 65.71 L 73.44 68.57 L 71.08 71.43 L 69.50 74.29 L 69.00 77.14 L 69.70 80.00 L 71.44 82.86 L 73.89 85.71 L 76.56 88.57 L 78.92 91.43 L 80.50 94.29 L 81.00 97.14 L 80.30 100.00" fill="none"/><path d="M 81.25 0.00 L 79.28 2.86 L 81.93 5.71 L 84.45 8.57 L 86.34 11.43 L 87.21 14.29 L 86.91 17.14 L 85.48 20.00 L 83.22 22.86 L 80.57 25.71 L 78.05 28.57 L 76.16 31.43 L 75.29 34.29 L 75.59 37.14 L 77.02 40.00 L 79.28 42.86 L 81.93 45.71 L 84.45 48.57 L 86.34 51.43 L 87.21 54.29 L 86.91 57.14 L 85.48 60.00 L 83.22 62.86 L 80.57 65.71 L 78.05 68.57 L 76.16 71.43 L 75.29 74.29 L 75.59 77.14 L 77.02 80.00 L 79.28 82.86 L 81.93 85.71 L 84.45 88.57 L 86.34 91.43 L 87.21 94.29 L 86.91 97.14 L 85.48 100.00" fill="none"/><path d="M 87.50 0.00 L 87.29 2.86 L 89.92 5.71 L 92.06 8.57 L 93.30 11.43 L 93.39 14.29 L 92.32 17.14 L 90.29 20.00 L 87.71 22.86 L 85.08 25.71 L 82.94 28.57 L 81.70 31.43 L 81.61 34.29 L 82.68 37.14 L 84.71 40.00 L 87.29 42.86 L 89.92 45.71 L 92.06 48.57 L 93.30 51.43 L 93.39 54.29 L 92.32 57.14 L 90.29 60.00 L 87.71 62.86 L 85.08 65.71 L 82.94 68.57 L 81.70 71.43 L 81.61 74.29 L 82.68 77.14 L 84.71 80.00 L 87.29 82.86 L 89.92 85.71 L 92.06 88.57 L 93.30 91.43 L 93.39 94.29 L 92.32 97.14 L 90.29 100.00" fill="none"/><path d="M 93.75 0.00 L 95.33 2.86 L 97.68 5.71 L 99.26 8.57 L 99.74 11.43 L 99.04 14.29 L 97.29 17.14 L 94.84 20.00 L 92.17 22.86 L 89.82 25.71 L 88.24 28.57 L 87.76 31.43 L 88.46 34.29 L 90.21 37.14 L 92.66 40.00 L 95.33 42.86 L 97.68 45.71 L 99.26 48.57 L 99.74 51.43 L 99.04 54.29 L 97.29 57.14 L 94.84 60.00 L 92.17 62.86 L 89.82 65.71 L 88.24 68.57 L 87.76 71.43 L 88.46 74.29 L 90.21 77.14 L 92.66 80.00 L 95.33 82.86 L 97.68 85.71 L 99.26 88.57 L 99.74 91.43 L 99.04 94.29 L 97.29 97.14 L 94.84 100.00" fill="none"/><path d="M 100.00 0.00 L 103.22 2.86 L 105.10 5.71 L 105.97 8.57 L 105.65 11.43 L 104.22 14.29 L 101.96 17.14 L 99.30 20.00 L 96.78 22.86 L 94.90 25.71 L 94.03 28.57 L 94.35 31.43 L 95.78 34.29 L 98.04 37.14 L 100.70 40.00 L 103.22 42.86 L 105.10 45.71 L 105.97 48.57 L 105.65 51.43 L 104.22 54.29 L 101.96 57.14 L 99.30 60.00 L 96.78 62.86 L 94.90 65.71 L 94.03 68.57 L 94.35 71.43 L 95.78 74.29 L 98.04 77.14 L 100.70 80.00 L 103.22 82.86 L 105.10 85.71 L 105.97 88.57 L 105.65 91.43 L 104.22 94.29 L 101.96 97.14 L 99.30 100.00" fill="none"/></g>
</svg>