<svg width="743" height="709" viewBox="0 0 743 709" fill="none" xmlns="http://www.w3.org/2000/svg">
<path d="M371.24 471.855L186.37 354.266V589.444L371.24 707.032V471.855Z" fill="url(#paint0_linear_199_426)" stroke="black" stroke-width="3" stroke-linejoin="round"/>
<path d="M371.24 471.855L556.11 354.266V589.444L371.24 707.032V471.855Z" fill="url(#paint1_linear_199_426)" stroke="black" stroke-width="3" stroke-linejoin="round"/>
<path d="M371.24 236.677L556.11 354.266L371.24 471.855L186.37 354.266L371.24 236.677Z" stroke="black" stroke-width="3" stroke-linejoin="round"/>
<path d="M556.11 354.266L371.24 236.677V471.855L556.11 589.444V354.266Z" fill="url(#paint2_linear_199_426)" stroke="black" stroke-width="3" stroke-linejoin="round"/>
<path d="M556.11 354.266L740.98 236.677V471.855L556.11 589.444V354.266Z" fill="url(#paint3_linear_199_426)" stroke="black" stroke-width="3" stroke-linejoin="round"/>
<path d="M556.11 119.089L740.98 236.677L556.11 354.266L371.24 236.677L556.11 119.089Z" fill="url(#paint4_linear_199_426)" stroke="black" stroke-width="3" stroke-linejoin="round"/>
<path d="M186.37 354.266L1.5 236.677V471.855L186.37 589.444V354.266Z" fill="url(#paint5_linear_199_426)" stroke="black" stroke-width="3" stroke-linejoin="round"/>
<path d="M186.37 354.266L371.24 236.677V471.855L186.37 589.444V354.266Z" fill="url(#paint6_linear_199_426)" stroke="black" stroke-width="3" stroke-linejoin="round"/>
<path d="M186.37 119.089L371.24 236.677L186.37 354.266L1.5 236.677L186.37 119.089Z" fill="url(#paint7_linear_199_426)" stroke="black" stroke-width="3" stroke-linejoin="round"/>
<path d="M371.24 236.677L186.37 119.089V354.266L371.24 471.855V236.677Z" fill="url(#paint8_linear_199_426)" stroke="black" stroke-width="3" stroke-linejoin="round"/>
<path d="M371.24 236.677L556.11 119.089V354.266L371.24 471.855V236.677Z" fill="url(#paint9_linear_199_426)" stroke="black" stroke-width="3" stroke-linejoin="round"/>
<path d="M371.24 1.5L556.11 119.089L371.24 236.677L186.37 119.089L371.24 1.5Z" fill="url(#paint10_linear_199_426)" stroke="black" stroke-width="3" stroke-linejoin="round"/>
<defs>
<linearGradient id="paint0_linear_199_426" x1="258.896" y1="41.7074" x2="-76.8694" y2="547.725" gradientUnits="userSpaceOnUse">
<stop stop-color="#720A08"/>
<stop offset="0.389423" stop-color="#C29ABB"/>
<stop offset="0.620192" stop-color="#D0D6FD"/>
<stop offset="1" stop-color="#BEA6B0"/>
</linearGradient>
<linearGradient id="paint1_linear_199_426" x1="443.766" y1="41.7074" x2="108" y2="547.725" gradientUnits="userSpaceOnUse">
<stop stop-color="#720A08"/>
<stop offset="0.389423" stop-color="#C29ABB"/>
<stop offset="0.620192" stop-color="#D0D6FD"/>
<stop offset="1" stop-color="#BEA6B0"/>
</linearGradient>
<linearGradient id="paint2_linear_199_426" x1="463.675" y1="236.677" x2="463.675" y2="589.444" gradientUnits="userSpaceOnUse">
<stop stop-color="#BCE5F3"/>
<stop offset="1" stop-color="#D0D6FD"/>
</linearGradient>
<linearGradient id="paint3_linear_199_426" x1="628.636" y1="-75.8813" x2="292.87" y2="430.136" gradientUnits="userSpaceOnUse">
<stop stop-color="#BEA6B0"/>
<stop offset="0.379808" stop-color="#BCE5F3"/>
<stop offset="0.610577" stop-color="#FFFCB9"/>
<stop offset="1" stop-color="#F6F7F9"/>
</linearGradient>
<linearGradient id="paint4_linear_199_426" x1="516.292" y1="-89.2838" x2="413.837" y2="373.931" gradientUnits="userSpaceOnUse">
<stop stop-color="#BEA6B0"/>
<stop offset="0.379808" stop-color="#BCE5F3"/>
<stop offset="0.610577" stop-color="#FFFCB9"/>
<stop offset="1" stop-color="#F6F7F9"/>
</linearGradient>
<linearGradient id="paint5_linear_199_426" x1="74.0259" y1="-75.8813" x2="-261.74" y2="430.136" gradientUnits="userSpaceOnUse">
<stop stop-color="#BEA6B0"/>
<stop offset="0.379808" stop-color="#BCE5F3"/>
<stop offset="0.610577" stop-color="#FFFCB9"/>
<stop offset="1" stop-color="#F6F7F9"/>
</linearGradient>
<linearGradient id="paint6_linear_199_426" x1="278.805" y1="236.677" x2="278.805" y2="589.444" gradientUnits="userSpaceOnUse">
<stop stop-color="#BCE5F3"/>
<stop offset="1" stop-color="#D0D6FD"/>
</linearGradient>
<linearGradient id="paint7_linear_199_426" x1="146.552" y1="-89.2838" x2="44.0973" y2="373.931" gradientUnits="userSpaceOnUse">
<stop stop-color="#BEA6B0"/>
<stop offset="0.379808" stop-color="#BCE5F3"/>
<stop offset="0.610577" stop-color="#FFFCB9"/>
<stop offset="1" stop-color="#F6F7F9"/>
</linearGradient>
<linearGradient id="paint8_linear_199_426" x1="278.805" y1="119.089" x2="278.805" y2="471.855" gradientUnits="userSpaceOnUse">
<stop stop-color="#BCE5F3"/>
<stop offset="1" stop-color="#D0D6FD"/>
</linearGradient>
<linearGradient id="paint9_linear_199_426" x1="463.675" y1="119.089" x2="463.675" y2="471.855" gradientUnits="userSpaceOnUse">
<stop stop-color="#BCE5F3"/>
<stop offset="1" stop-color="#D0D6FD"/>
</linearGradient>
<linearGradient id="paint10_linear_199_426" x1="331.422" y1="-206.872" x2="228.968" y2="256.342" gradientUnits="userSpaceOnUse">
<stop stop-color="#BEA6B0"/>
<stop offset="0.379808" stop-color="#BCE5F3"/>
<stop offset="0.610577" stop-color="#FFFCB9"/>
<stop offset="1" stop-color="#F6F7F9"/>
</linearGradient>
</defs>
</svg>
