<svg width="200" height="200" viewBox="0 0 200 200" fill="none" xmlns="http://www.w3.org/2000/svg">
  <defs>
    <!-- Blue gradient - inner step faces -->
    <linearGradient id="blueGrad" x1="0%" y1="0%" x2="0%" y2="100%">
      <stop offset="0%" stop-color="#BCE5F3"/>
      <stop offset="100%" stop-color="#D0D6FD"/>
    </linearGradient>

    <!-- Lemon gradient - outer shell (top faces) -->
    <linearGradient id="lemonGrad" x1="0%" y1="0%" x2="100%" y2="100%">
      <stop offset="0%" stop-color="#BEA6B0"/>
      <stop offset="38%" stop-color="#BCE5F3"/>
      <stop offset="61%" stop-color="#FFFCB9"/>
      <stop offset="100%" stop-color="#F6F7F9"/>
    </linearGradient>

    <!-- Lemon gradient - left faces -->
    <linearGradient id="lemonGradVert" x1="0%" y1="0%" x2="0%" y2="100%">
      <stop offset="0%" stop-color="#BEA6B0"/>
      <stop offset="38%" stop-color="#BCE5F3"/>
      <stop offset="61%" stop-color="#FFFCB9"/>
      <stop offset="100%" stop-color="#F6F7F9"/>
    </linearGradient>
  </defs>

  <!--
    Isometric stair-step arrangement of 4 cubes
    Each cube shows 3 visible faces: top (diamond), left (parallelogram), right (parallelogram)
    Cubes arranged diagonally from top-left to bottom-right
  -->

  <!-- Cube 1: Top-left (highest) -->
  <g transform="translate(50, 20)">
    <!-- Top face -->
    <polygon points="25,0 50,15 25,30 0,15" fill="url(#lemonGrad)" stroke="#0F0E0E" stroke-width="2" stroke-linejoin="round"/>
    <!-- Left face -->
    <polygon points="0,15 25,30 25,60 0,45" fill="url(#lemonGradVert)" stroke="#0F0E0E" stroke-width="2" stroke-linejoin="round"/>
    <!-- Right face -->
    <polygon points="50,15 50,45 25,60 25,30" fill="url(#blueGrad)" stroke="#0F0E0E" stroke-width="2" stroke-linejoin="round"/>
  </g>

  <!-- Cube 2: Upper-right (one step down) -->
  <g transform="translate(100, 50)">
    <!-- Top face -->
    <polygon points="25,0 50,15 25,30 0,15" fill="url(#lemonGrad)" stroke="#0F0E0E" stroke-width="2" stroke-linejoin="round"/>
    <!-- Left face -->
    <polygon points="0,15 25,30 25,60 0,45" fill="url(#blueGrad)" stroke="#0F0E0E" stroke-width="2" stroke-linejoin="round"/>
    <!-- Right face -->
    <polygon points="50,15 50,45 25,60 25,30" fill="url(#lemonGradVert)" stroke="#0F0E0E" stroke-width="2" stroke-linejoin="round"/>
  </g>

  <!-- Cube 3: Lower-left (one step down from cube 1) -->
  <g transform="translate(0, 80)">
    <!-- Top face -->
    <polygon points="25,0 50,15 25,30 0,15" fill="url(#lemonGrad)" stroke="#0F0E0E" stroke-width="2" stroke-linejoin="round"/>
    <!-- Left face -->
    <polygon points="0,15 25,30 25,60 0,45" fill="url(#lemonGradVert)" stroke="#0F0E0E" stroke-width="2" stroke-linejoin="round"/>
    <!-- Right face -->
    <polygon points="50,15 50,45 25,60 25,30" fill="url(#blueGrad)" stroke="#0F0E0E" stroke-width="2" stroke-linejoin="round"/>
  </g>

  <!-- Cube 4: Bottom-right (lowest) -->
  <g transform="translate(50, 110)">
    <!-- Top face -->
    <polygon points="25,0 50,15 25,30 0,15" fill="url(#lemonGrad)" stroke="#0F0E0E" stroke-width="2" stroke-linejoin="round"/>
    <!-- Left face -->
    <polygon points="0,15 25,30 25,60 0,45" fill="url(#blueGrad)" stroke="#0F0E0E" stroke-width="2" stroke-linejoin="round"/>
    <!-- Right face -->
    <polygon points="50,15 50,45 25,60 25,30" fill="url(#lemonGradVert)" stroke="#0F0E0E" stroke-width="2" stroke-linejoin="round"/>
  </g>
</svg>
